<svg width="41" height="41" viewBox="0 0 41 41" fill="none" xmlns="http://www.w3.org/2000/svg">
<circle cx="20.1667" cy="20.5835" r="20" fill="#DCFFCA"/>
<path d="M12.6685 21.4186C12.6694 25.5181 15.6505 29.0086 19.6993 29.6511V23.8269H17.5851V21.4186H19.7018V19.5853C19.6072 18.7166 19.9039 17.8508 20.5115 17.2227C21.1191 16.5947 21.9746 16.2695 22.846 16.3353C23.4714 16.3454 24.0953 16.4011 24.7126 16.5019V18.5511H23.6593C23.2967 18.5036 22.9321 18.6234 22.6683 18.8767C22.4044 19.13 22.2699 19.4894 22.3026 19.8536V21.4186H24.6118L24.2426 23.8278H22.3026V29.6511C26.6814 28.9591 29.7519 24.9601 29.2897 20.5512C28.8276 16.1423 24.9945 12.8669 20.5675 13.0979C16.1404 13.329 12.6692 16.9855 12.6685 21.4186Z" fill="#2C2C2C"/>
</svg>
