<svg width="41" height="41" viewBox="0 0 41 41" fill="none" xmlns="http://www.w3.org/2000/svg">
<circle cx="20.8333" cy="20.5835" r="20" fill="#DCFFCA"/>
<path d="M15.9972 13.7778C19.7766 13.7778 23.5564 13.7778 27.3358 13.7778C27.3582 13.7872 27.3799 13.8014 27.4034 13.8051C28.5089 13.9845 29.3026 14.8978 29.3034 16.0091C29.306 19.6143 29.3064 23.2196 29.3034 26.8245C29.3023 28.0584 28.3097 29.0512 27.0757 29.0524C23.47 29.0554 19.8644 29.0595 16.2592 29.0494C15.3301 29.0468 14.6522 28.5916 14.243 27.7606C14.1398 27.5506 14.098 27.3106 14.0277 27.0846C14.0277 23.3055 14.0277 19.5261 14.0277 15.7471C14.0371 15.7243 14.0509 15.7027 14.055 15.6791C14.1888 14.8858 14.6238 14.3167 15.3492 13.9792C15.5525 13.8851 15.7804 13.8436 15.9972 13.7778ZM21.557 17.3652C19.2336 17.4504 17.4495 19.4776 17.6965 21.819C17.9162 23.9031 19.7889 25.6227 22.1258 25.3851C24.2033 25.1736 25.9362 23.3022 25.6951 20.9607C25.478 18.8558 23.6569 17.2942 21.557 17.3652ZM27.5129 16.9317C27.5021 16.2295 27.0095 15.5995 26.1967 15.576C25.5046 15.5562 24.8633 16.0618 24.8375 16.8824C24.815 17.5879 25.3364 18.228 26.1548 18.2455C26.8653 18.2609 27.4677 17.737 27.5129 16.9317Z" fill="#2C2C2C"/>
<path d="M21.7028 18.2539C23.4339 18.2565 24.8346 19.666 24.829 21.3999C24.8234 23.1241 23.4171 24.5209 21.6901 24.5183C19.9591 24.5157 18.5584 23.1061 18.564 21.3723C18.5696 19.6481 19.9759 18.2513 21.7028 18.2539Z" fill="#2C2C2C"/>
<path d="M26.1694 17.3573C25.9175 17.3562 25.7213 17.1541 25.7258 16.9003C25.7299 16.6556 25.9283 16.4628 26.1754 16.4639C26.4272 16.465 26.6234 16.6672 26.619 16.9209C26.6148 17.1656 26.416 17.3585 26.1694 17.3573Z" fill="#2C2C2C"/>
</svg>
