<svg width="41" height="41" viewBox="0 0 41 41" fill="none" xmlns="http://www.w3.org/2000/svg">
<circle cx="20.5" cy="20.5835" r="20" fill="#DCFFCA"/>
<path d="M26.896 16.3338C27.6132 15.9051 28.1498 15.23 28.4056 14.4346C27.7317 14.8344 26.9944 15.1161 26.2256 15.2674C25.1597 14.1398 23.4708 13.8654 22.1027 14.5975C20.7346 15.3296 20.026 16.887 20.3728 18.3994C17.6125 18.2608 15.0408 16.9569 13.2976 14.8122C12.3879 16.3813 12.8528 18.3872 14.36 19.3962C13.815 19.3787 13.282 19.2311 12.8056 18.9658C12.8056 18.9802 12.8056 18.9946 12.8056 19.009C12.8059 20.6435 13.9579 22.0515 15.56 22.3754C15.0545 22.5129 14.5242 22.5332 14.0096 22.4346C14.4602 23.8324 15.7485 24.79 17.2168 24.8186C16.0007 25.7731 14.4988 26.2907 12.9528 26.2882C12.6788 26.2886 12.405 26.2728 12.1328 26.241C13.7027 27.2498 15.5299 27.7853 17.396 27.7834C19.9922 27.8012 22.4872 26.7777 24.323 24.9418C26.1588 23.1059 27.1821 20.6108 27.164 18.0146C27.164 17.8658 27.1605 17.7178 27.1536 17.5706C27.826 17.0847 28.4063 16.4827 28.8672 15.793C28.2408 16.0706 27.5764 16.2529 26.896 16.3338Z" fill="#2C2C2C"/>
</svg>
