<svg width="41" height="41" viewBox="0 0 41 41" fill="none" xmlns="http://www.w3.org/2000/svg">
<circle cx="20.5" cy="20.5835" r="20" fill="#DCFFCA"/>
<path d="M20.5056 27.1277H20.4869C20.429 27.1277 14.6396 27.1165 13.1789 26.7198C12.3757 26.5034 11.7484 25.8758 11.5325 25.0725C11.2698 23.5907 11.143 22.088 11.1536 20.5831C11.1468 19.0758 11.277 17.571 11.5428 16.0873C11.7646 15.2832 12.3891 14.6527 13.191 14.4231C14.6116 14.0498 20.2414 14.0498 20.4804 14.0498H20.5C20.5588 14.0498 26.3632 14.061 27.8089 14.4577C28.6104 14.6751 29.2364 15.3015 29.4534 16.1031C29.7244 17.5904 29.8517 19.1004 29.8333 20.6121C29.8398 22.1176 29.7093 23.6205 29.4432 25.1023C29.2244 25.9047 28.5968 26.5309 27.794 26.7478C26.3753 27.1239 20.7445 27.1277 20.5056 27.1277ZM18.6389 17.7878L18.6342 23.3878L23.4988 20.5878L18.6389 17.7878Z" fill="#2C2C2C"/>
</svg>
